<svg width="714" height="161" viewBox="0 0 714 161" fill="none" xmlns="http://www.w3.org/2000/svg">
<path d="M10.3294 61.0326L4.44838 88.2541C3.09259 94.5225 4.7125 100.703 11.2802 100.703H81.529L88.3315 60.2227L10.4702 62.0186C10.435 62.2828 10.3822 60.7685 10.3294 61.015V61.0326Z" fill="url(#paint0_linear_172_337)"/>
<path d="M30.529 148.672C29.3662 154.86 30.9342 160.818 37.3648 160.818H71.6776L78.6441 118.369L36.2197 120.15L30.5114 148.672H30.529Z" fill="url(#paint1_linear_172_337)"/>
<path d="M63.4009 1.99389C57.7135 1.83542 55.6182 3.57861 54.5969 9.03709L46.9661 41.9092H91.3159L97.983 0.990234L63.4009 1.99389Z" fill="url(#paint2_linear_172_337)"/>
<path d="M100.539 100.686H132.673C138.132 100.668 142.692 97.0408 143.784 91.8288L150.563 59.7646L106.42 61.86L100.521 100.686H100.539Z" fill="url(#paint3_linear_172_337)"/>
<path d="M116.225 3.7547L108.196 41.893L179.507 41.8578C188.47 41.8578 195.935 35.8183 197.59 27.2082L202.644 0.955078L116.225 3.77231V3.7547Z" fill="url(#paint4_linear_172_337)"/>
<path d="M202.08 3.78995L202.644 0.9375L114.781 0.972715L108.196 41.8754H114.341L120.469 3.82516L202.08 3.78995Z" fill="url(#paint5_linear_172_337)"/>
<path d="M6.76814 90.6846L12.6491 63.4631C12.7019 63.2166 12.7548 62.9525 12.79 62.706L87.9006 62.6708L88.399 59.8184L7.10269 59.8536C7.06747 60.1177 7.01465 60.3642 6.96183 60.6107L1.06325 87.8322C-1.26089 96.2543 6.06045 100.83 10.7771 100.689C7.74994 98.859 5.77866 95.9024 6.76814 90.6846Z" fill="url(#paint6_linear_172_337)"/>
<path d="M32.7119 151.502L38.4169 121.252H78.1406L78.6336 118.382H32.7119L27.0069 148.668C25.9329 154.32 30.1412 159.743 35.7933 160.623C33.3986 158.317 32.0604 154.971 32.7119 151.52V151.502Z" fill="url(#paint7_linear_172_337)"/>
<path d="M57.705 13.0019C58.5706 7.51659 63.268 3.59568 68.9576 3.59234L97.5153 3.62752L97.9967 0.939163L63.1738 0.90325C57.4842 0.906596 52.7868 4.8275 51.9212 10.3128L46.6164 41.9099L52.8471 41.91L57.6874 13.0024L57.705 13.0019Z" fill="url(#paint8_linear_172_337)"/>
<path d="M149.978 62.6005L150.577 59.748L105.342 59.7833L98.7739 100.687H104.919L111.047 62.6182L149.978 62.6005Z" fill="url(#paint9_linear_172_337)"/>
<path d="M238.15 71.5746H319.609L315.635 95.3979H234.176L238.15 71.5746ZM330.01 25.4076L326.036 49.2309H242.477L258.724 35.4696L241.891 136.386H211.2C219.521 100.649 226.561 56.4894 226.561 56.4894L231.04 25.4076H330.01Z" fill="black"/>
<path d="M330.01 136.386C334.081 119.209 343.681 55.2094 343.681 55.2094L348.138 25.3618H441.035L437.261 47.9868H373.692L370.214 68.8342H425.756L422.063 90.9744H366.521L362.72 113.761H427.437C427.437 113.761 425.544 122.104 424.797 126.72C424.112 130.963 423.663 136.386 423.663 136.386H330.01Z" fill="black"/>
<path d="M472.533 74.2381H514.687C519.988 74.2381 524.386 73.0543 527.881 70.6868C531.393 68.2206 533.51 64.8172 534.235 60.4768C534.959 56.1363 533.968 52.7822 531.262 50.4147C528.573 47.9485 524.579 46.7154 519.278 46.7154H473.073L488.12 32.9541L470.867 136.386H442.241C449.846 105.129 456.321 55.2094 456.321 55.2094L460.161 25.3618L526.583 25.4076C534.984 25.4076 542.088 26.8873 547.895 29.8467C553.702 32.8061 557.919 36.9 560.548 42.1283C563.176 47.3566 563.906 53.4728 562.737 60.4768C561.586 67.3821 558.823 73.4489 554.451 78.6772C550.079 83.9055 544.495 87.9994 537.701 90.9588C530.923 93.8196 523.334 95.25 514.933 95.25H469.028L472.533 74.2381ZM488.982 84.4481H520.935L553.676 136.386H520.822L488.982 84.4481Z" fill="black"/>
<path d="M628.14 138.754C614.939 138.754 603.74 136.337 594.546 131.503C585.451 126.669 578.877 119.912 574.825 111.231C570.772 102.55 569.709 92.4385 571.634 80.8968C573.559 69.355 577.996 59.2437 584.944 50.5627C591.893 41.8817 600.721 35.1244 611.428 30.2906C622.236 25.4569 634.24 23.04 647.441 23.04C660.643 23.04 671.791 25.4569 680.886 30.2906C690.08 35.1244 696.704 41.8817 700.757 50.5627C704.909 59.2437 706.023 69.355 704.098 80.8968C702.172 92.4385 697.685 102.55 690.637 111.231C683.688 119.912 674.81 126.669 664.003 131.503C653.296 136.337 641.341 138.754 628.14 138.754ZM632.311 113.746C640.112 113.746 647.027 112.464 653.055 109.899C659.1 107.236 664.034 103.438 667.857 98.5053C671.78 93.573 674.309 87.7035 675.445 80.8968C676.58 74.0901 676.009 68.2206 673.731 63.2882C671.554 58.3558 667.879 54.6072 662.706 52.0424C657.549 49.3789 651.071 48.0472 643.27 48.0472C635.569 48.0472 628.696 49.3789 622.652 52.0424C616.623 54.6072 611.647 58.3558 607.724 63.2882C603.801 68.2206 601.272 74.0901 600.137 80.8968C599.001 87.7035 599.572 93.573 601.85 98.5053C604.128 103.438 607.845 107.236 613.001 109.899C618.174 112.464 624.61 113.746 632.311 113.746Z" fill="black"/>
<defs>
<linearGradient id="paint0_linear_172_337" x1="9.0989" y1="80.4322" x2="147.401" y2="80.7277" gradientUnits="userSpaceOnUse">
<stop offset="0.0457268" stop-color="#38B45F"/>
<stop offset="0.15684" stop-color="#38B45F"/>
<stop offset="1" stop-color="#68E683"/>
</linearGradient>
<linearGradient id="paint1_linear_172_337" x1="32.6362" y1="139.562" x2="117.514" y2="139.617" gradientUnits="userSpaceOnUse">
<stop offset="0.13175" stop-color="#38B45F"/>
<stop offset="1" stop-color="#68E683"/>
</linearGradient>
<linearGradient id="paint2_linear_172_337" x1="50.0472" y1="21.4189" x2="139.522" y2="21.4825" gradientUnits="userSpaceOnUse">
<stop offset="0.13175" stop-color="#38B45F"/>
<stop offset="1" stop-color="#68E683"/>
</linearGradient>
<linearGradient id="paint3_linear_172_337" x1="103.543" y1="80.1943" x2="191.308" y2="80.2555" gradientUnits="userSpaceOnUse">
<stop offset="0.13175" stop-color="#38B45F"/>
<stop offset="1" stop-color="#68E683"/>
</linearGradient>
<linearGradient id="paint4_linear_172_337" x1="113.9" y1="21.3932" x2="268.804" y2="21.7597" gradientUnits="userSpaceOnUse">
<stop offset="0.0457268" stop-color="#38B45F"/>
<stop offset="0.15684" stop-color="#38B45F"/>
<stop offset="1" stop-color="#68E683"/>
</linearGradient>
<linearGradient id="paint5_linear_172_337" x1="111.883" y1="22.2468" x2="210.55" y2="16.6091" gradientUnits="userSpaceOnUse">
<stop offset="0.346481" stop-color="#36A458"/>
<stop offset="0.877597" stop-color="#4ECB6F"/>
</linearGradient>
<linearGradient id="paint6_linear_172_337" x1="3.86142" y1="81.0925" x2="95.8003" y2="76.1914" gradientUnits="userSpaceOnUse">
<stop offset="0.346481" stop-color="#36A458"/>
<stop offset="0.877597" stop-color="#4ECB6F"/>
</linearGradient>
<linearGradient id="paint7_linear_172_337" x1="28.3983" y1="140.37" x2="82.5476" y2="138.728" gradientUnits="userSpaceOnUse">
<stop offset="0.346481" stop-color="#36A458"/>
<stop offset="0.89838" stop-color="#4DCA6F"/>
<stop offset="1" stop-color="#58D677"/>
</linearGradient>
<linearGradient id="paint8_linear_172_337" x1="48.1189" y1="22.5214" x2="103.112" y2="19.1938" gradientUnits="userSpaceOnUse">
<stop offset="0.346481" stop-color="#36A458"/>
<stop offset="0.881635" stop-color="#4DCA6F"/>
<stop offset="1" stop-color="#58D677"/>
</linearGradient>
<linearGradient id="paint9_linear_172_337" x1="100.796" y1="81.0577" x2="155.037" y2="79.3578" gradientUnits="userSpaceOnUse">
<stop offset="0.346481" stop-color="#36A458"/>
<stop offset="0.881635" stop-color="#4DCA6F"/>
<stop offset="1" stop-color="#58D677"/>
</linearGradient>
</defs>
</svg>
