<?xml version="1.0" encoding="UTF-8"?>
<svg id="Layer_1" data-name="Layer 1" xmlns="http://www.w3.org/2000/svg" xmlns:xlink="http://www.w3.org/1999/xlink" viewBox="0 0 500 500">
  <defs>
    <style>
      .cls-1 {
        fill: url(#linear-gradient-2);
      }

      .cls-2 {
        fill: #fff;
      }

      .cls-3 {
        fill: #38b45f;
      }

      .cls-4 {
        fill: url(#linear-gradient-5);
      }

      .cls-5 {
        fill: url(#linear-gradient-3);
      }

      .cls-6 {
        fill: url(#linear-gradient);
      }

      .cls-7 {
        fill: url(#linear-gradient-4);
      }
    </style>
    <linearGradient id="linear-gradient" x1="121" y1="260.96" x2="248.37" y2="260.96" gradientUnits="userSpaceOnUse">
      <stop offset="0" stop-color="#bfd857"/>
      <stop offset="1" stop-color="#008f3d"/>
    </linearGradient>
    <linearGradient id="linear-gradient-2" x1="158.41" y1="346.69" x2="233.68" y2="346.69" xlink:href="#linear-gradient"/>
    <linearGradient id="linear-gradient-3" x1="187.79" y1="174.65" x2="263.41" y2="174.65" xlink:href="#linear-gradient"/>
    <linearGradient id="linear-gradient-4" x1="260.88" y1="260.54" x2="336.18" y2="260.54" xlink:href="#linear-gradient"/>
    <linearGradient id="linear-gradient-5" x1="278.26" y1="175.05" x2="415.54" y2="175.05" xlink:href="#linear-gradient"/>
  </defs>
  <rect class="cls-2" width="500" height="500"/>
  <g>
    <g>
      <path class="cls-3" d="m134.98,232.85l-8.54,39.58c-1.97,9.11.39,18.09,9.94,18.08l101.76-.05,10.24-58.78-113.19,2.62c-.05.37-.13-1.82-.2-1.45Z"/>
      <path class="cls-3" d="m163.77,360.02c-1.69,8.97.58,17.64,9.92,17.63l49.25-.02,10.74-61.62-61.62,2.59-8.29,41.42Z"/>
      <path class="cls-3" d="m213.14,146.81c-8.27-.24-11.3,2.3-12.8,10.24l-12.56,48.31,65.17-.03,10.45-59.97-50.26,1.45Z"/>
      <path class="cls-3" d="m263.44,290.28l46.72-.02c7.93,0,14.55-5.27,16.16-12.84l9.87-46.62-64.16,3.05-8.58,56.44Z"/>
      <path class="cls-3" d="m289.93,149.37l-11.67,55.43,103.66-.05c13.04,0,23.87-8.79,26.28-21.3l7.34-38.17-125.61,4.09Z"/>
    </g>
    <g>
      <path class="cls-6" d="m129.59,276.56l8.54-39.58c.07-.37.15-.74.2-1.11l109.31-.05.72-4.14-118.31.06c-.05.37-.13.74-.2,1.11l-8.54,39.58c-1.8,8.35,4.35,16.5,12.74,17.82-3.6-3.47-5.57-8.52-4.46-13.68Z"/>
      <path class="cls-1" d="m166.93,364.15l8.29-43.98,57.75-.03.72-4.14-66.74.03-8.29,43.98c-1.55,8.22,4.55,16.1,12.76,17.37-3.48-3.36-5.43-8.22-4.48-13.23Z"/>
      <path class="cls-5" d="m205.15,161.28c1.5-7.94,8.47-13.44,16.74-13.2l40.84,1.17.68-3.88-49.79-1.42c-8.27-.24-15.25,5.26-16.74,13.2l-9.08,48.22h9.06s8.3-44.08,8.3-44.08Z"/>
      <polygon class="cls-7" points="335.3 234.93 336.18 230.79 270.44 230.82 260.88 290.28 269.82 290.28 278.71 234.96 335.3 234.93"/>
      <polygon class="cls-4" points="414.75 149.43 415.54 145.29 287.82 145.35 278.26 204.81 287.2 204.8 296.1 149.49 414.75 149.43"/>
    </g>
  </g>
</svg>